<svg viewBox="0 0 64 64" xmlns="http://www.w3.org/2000/svg"><title></title><g id="_12-Mask"><path d="M26,41.63a12.515,12.515,0,0,1-4.22-3.46L22,38V30s3-1,10-1,10,1,10,1v8l.22.17A12.515,12.515,0,0,1,38,41.63a13.824,13.824,0,0,1-12,0Z" style="fill:#f5f5f5"></path><ellipse cx="25" cy="25" rx="2" ry="3" style="fill:#5e3616"></ellipse><ellipse cx="39" cy="25" rx="2" ry="3" style="fill:#5e3616"></ellipse><path d="M35.99,12.02C35.69,12.43,30.78,19,24,19V13l-6,5v5H16a2.006,2.006,0,0,0-2,2v1a5.4,5.4,0,0,0,.99,2.99C14.69,28.87,10,26.84,10,22a10.8,10.8,0,0,1,4-8A8.613,8.613,0,0,1,6,9s8-1,12-3,6-5,14-5A11.785,11.785,0,0,1,42,6a4.333,4.333,0,0,1,4-2c3,0,8,2,8,8v8.6a3.989,3.989,0,0,1-.88,2.5L50,27l-.11.01A4.882,4.882,0,0,0,50,26V25a2.006,2.006,0,0,0-2-2H46V19c-5,0-5-8-5-8s-3,5-6,5Z" style="fill:#5e3616"></path><path d="M48,23H46V19c-5,0-5-8-5-8s-3,5-6,5l.99-3.98C35.69,12.43,30.78,19,24,19V13l-6,5v5H16a2.006,2.006,0,0,0-2,2v1a5.4,5.4,0,0,0,.99,2.99L15,29a7.739,7.739,0,0,0,4,3,14.457,14.457,0,0,0,2.78,6.17L22,38V30s3-1,10-1,10,1,10,1v8l.22.17A14.457,14.457,0,0,0,45,32a7.411,7.411,0,0,0,4.89-4.99A4.882,4.882,0,0,0,50,26V25A2.006,2.006,0,0,0,48,23ZM25,28c-1.1,0-2-1.34-2-3s.9-3,2-3,2,1.34,2,3S26.1,28,25,28Zm14,0c-1.1,0-2-1.34-2-3s.9-3,2-3,2,1.34,2,3S40.1,28,39,28Z" style="fill:#f2c4b2"></path><path d="M38,46.42a1.991,1.991,0,0,0,.92,1.68c-.39.52-2.47,2.9-6.92,2.9s-6.53-2.38-6.92-2.9A1.991,1.991,0,0,0,26,46.42V41.63a13.824,13.824,0,0,0,12,0Z" style="fill:#f2b59d"></path><path d="M59,57.74V62H5V57.74A6.01,6.01,0,0,1,9.61,51.9l14.85-3.53a2.016,2.016,0,0,0,.62-.27c.39.52,2.47,2.9,6.92,2.9s6.53-2.38,6.92-2.9a2.016,2.016,0,0,0,.62.27L54.39,51.9A6.01,6.01,0,0,1,59,57.74Z" style="fill:#34c1ad"></path><path d="M15,59.706a2.293,2.293,0,0,1,1.635-2.2l27.123-8.137-4.218-1a2.016,2.016,0,0,1-.62-.27c-.39.52-2.47,2.9-6.92,2.9s-6.53-2.38-6.92-2.9a2.016,2.016,0,0,1-.62.27L9.61,51.9A6.01,6.01,0,0,0,5,57.74V62H17.294A2.294,2.294,0,0,1,15,59.706Z" style="fill:#21abab"></path><path d="M38,41.63a13.824,13.824,0,0,1-12,0v4.79a1.991,1.991,0,0,1-.92,1.68,7.107,7.107,0,0,0,2.264,1.81L38,43.25Z" style="fill:#ed9776"></path><path d="M18,25H17a1,1,0,0,0-1,1v1c0,1.105.895,3,2,3h0Z" style="fill:#f2a283"></path><path d="M46,25h1a1,1,0,0,1,1,1v1c0,1.105-.9,3-2,3h0Z" style="fill:#f2a283"></path><path d="M14,14a10.8,10.8,0,0,0-4,8c0,4.84,4.69,6.87,4.99,6.99A5.4,5.4,0,0,1,14,26V25a2.006,2.006,0,0,1,2-2h2V18l-6,2A8.76,8.76,0,0,1,14,14Z" style="fill:#3b220e"></path><path d="M46,19v4h2a2.006,2.006,0,0,1,2,2V21Z" style="fill:#3b220e"></path><polygon points="24 13 18 18 18 19 18 20 24 15 24 13" style="fill:#d9896d"></polygon><path d="M41,13s0,8,5,8V19c-5,0-5-8-5-8s-2.669,4.444-5.49,4.949L35,18C38,18,41,13,41,13Z" style="fill:#d9896d"></path><path d="M35.271,14.91l.719-2.89C35.69,12.43,30.78,19,24,19v2C29.424,21,33.644,16.8,35.271,14.91Z" style="fill:#d9896d"></path><path d="M33,29.009V29c0-1.105-.448-2-1-2s-1,.895-1,2v.009c.327,0,.655-.009,1-.009S32.673,29,33,29.009Z" style="fill:#d9896d"></path><path d="M32,41a10.031,10.031,0,0,1-2.146-.215A4.959,4.959,0,0,1,26,35.914V29.292A21.656,21.656,0,0,0,22,30v8l-.22.17A12.515,12.515,0,0,0,26,41.63a13.824,13.824,0,0,0,12,0,12.515,12.515,0,0,0,4.22-3.46L42,38S37,41,32,41Z" style="fill:#d4d4d4"></path><path d="M38,41v5.42a2,2,0,0,0,1.537,1.946L54.39,51.9A6,6,0,0,1,59,57.739V62" style="fill:none;stroke:#000;stroke-linejoin:round;stroke-width:2px"></path><path d="M26,44v2.42a2,2,0,0,1-1.537,1.946L9.61,51.9A6,6,0,0,0,5,57.739V62" style="fill:none;stroke:#000;stroke-linejoin:round;stroke-width:2px"></path><path d="M18,19v4H16a2,2,0,0,0-2,2v1c0,2.713,2.529,5.258,5,6,1.276,6.417,6.208,11,13,11s11.724-4.583,13-11c2.471-.742,5-3.287,5-6V25a2,2,0,0,0-2-2H46V19c-5,0-5-8-5-8s-3,5-6,5l1-4s-5,7-12,7V13l-6,5Z" style="fill:none;stroke:#000;stroke-linejoin:round;stroke-width:2px"></path><path d="M50,27l3.123-3.9A4,4,0,0,0,54,20.6V12c0-6-5-8-8-8a4.333,4.333,0,0,0-4,2A11.785,11.785,0,0,0,32,1C24,1,22,4,18,6S6,9,6,9a8.613,8.613,0,0,0,8,5,10.8,10.8,0,0,0-4,8c0,5,5,7,5,7" style="fill:none;stroke:#000;stroke-linejoin:round;stroke-width:2px"></path><ellipse cx="25" cy="25" rx="2" ry="3" style="fill:none;stroke:#000;stroke-linejoin:round;stroke-width:2px"></ellipse><ellipse cx="39" cy="25" rx="2" ry="3" style="fill:none;stroke:#000;stroke-linejoin:round;stroke-width:2px"></ellipse><path d="M22,38V30s3-1,10-1,10,1,10,1v8" style="fill:none;stroke:#000;stroke-linejoin:round;stroke-width:2px"></path><line style="fill:none;stroke:#000;stroke-linejoin:round;stroke-width:2px" x1="42" x2="46" y1="30" y2="23"></line><line style="fill:none;stroke:#000;stroke-linejoin:round;stroke-width:2px" x1="22" x2="18" y1="30" y2="23"></line><path d="M25,34a25,25,0,0,1,14,0" style="fill:none;stroke:#000;stroke-linejoin:round;stroke-width:2px"></path><path d="M25,38a25,25,0,0,1,14,0" style="fill:none;stroke:#000;stroke-linejoin:round;stroke-width:2px"></path><path d="M25,48s2,3,7,3,7-3,7-3" style="fill:none;stroke:#000;stroke-linejoin:round;stroke-width:2px"></path><line style="fill:none;stroke:#000;stroke-linejoin:round;stroke-width:2px" x1="52" x2="52" y1="40" y2="46"></line><line style="fill:none;stroke:#000;stroke-linejoin:round;stroke-width:2px" x1="55" x2="49" y1="43" y2="43"></line><line style="fill:none;stroke:#000;stroke-linejoin:round;stroke-width:2px" x1="12" x2="12" y1="32" y2="38"></line><line style="fill:none;stroke:#000;stroke-linejoin:round;stroke-width:2px" x1="15" x2="9" y1="35" y2="35"></line><path d="M36,20a4.38,4.38,0,0,1,3-1,4.38,4.38,0,0,1,3,1" style="fill:none;stroke:#000;stroke-linejoin:round;stroke-width:2px"></path><path d="M22,20a4.38,4.38,0,0,1,3-1,4.38,4.38,0,0,1,3,1" style="fill:none;stroke:#000;stroke-linejoin:round;stroke-width:2px"></path></g></svg>